<svg width="438" height="438" viewBox="0 0 438 438" fill="none" xmlns="http://www.w3.org/2000/svg">
<path d="M291.75 253.168C291.75 294.563 259.182 328.125 219 328.125C178.818 328.125 146.25 294.563 146.25 253.168C146.25 187.596 219 109.875 219 109.875C219 109.875 291.75 187.596 291.75 253.168Z" fill="#E9F4FA" fill-opacity="0.9"/>
<path fill-rule="evenodd" clip-rule="evenodd" d="M219 303.875C245.105 303.875 267.5 281.856 267.5 253.168C267.5 227.948 252.877 197.236 235.126 170.257C230.031 162.543 224.652 155.021 219 147.705C213.348 155.021 207.969 162.544 202.874 170.257C185.135 197.248 170.5 227.936 170.5 253.18C170.5 281.856 192.895 303.875 219 303.875ZM203.201 128.548C181.801 155.55 146.25 207.324 146.25 253.168C146.25 294.563 178.818 328.125 219 328.125C259.182 328.125 291.75 294.563 291.75 253.168C291.75 207.336 256.199 155.562 234.799 128.548C225.584 116.908 219 109.875 219 109.875C219 109.875 212.404 116.908 203.201 128.548Z" fill="#E9F4FA" fill-opacity="0.9"/>
<path fill-rule="evenodd" clip-rule="evenodd" d="M108.178 59.7623C70.1044 86.2324 42.7716 125.465 31.1316 170.351C19.4915 215.237 24.3141 262.807 44.7256 304.444C65.1372 346.081 99.7875 379.029 142.399 397.32C185.01 415.61 232.763 418.033 277.006 404.149L284.257 427.283C234.485 442.896 180.767 440.166 132.834 419.588C84.9017 399.01 45.9245 361.945 22.9635 315.107C0.00256348 268.269 -5.4234 214.756 7.66855 164.262C20.7605 113.769 51.5045 69.6338 94.3311 39.8531L108.19 59.7623H108.178ZM329.823 378.238C367.875 351.759 395.189 312.53 406.816 267.654C418.443 222.777 413.616 175.22 393.209 133.595C372.802 91.9701 338.163 59.0288 295.567 40.7365C252.97 22.4442 205.231 20.0103 160.994 33.8755L153.744 10.7288C203.511 -4.86849 257.218 -2.12857 305.14 18.4524C353.061 39.0334 392.028 76.0947 414.985 122.925C437.941 169.755 443.368 223.257 430.284 273.744C417.2 324.23 386.47 368.361 343.657 398.147L329.799 378.238H329.823Z" fill="#E9F4FA" fill-opacity="0.9"/>
<path fill-rule="evenodd" clip-rule="evenodd" d="M97.75 49.25H12.875V25H122V134.125H97.75V49.25ZM340.25 388.75H425.125V413H316V303.875H340.25V388.75Z" fill="#E9F4FA" fill-opacity="0.9"/>
</svg>
