<svg width="65" height="65" viewBox="0 0 65 65" fill="none" xmlns="http://www.w3.org/2000/svg">
<path d="M37.7286 20.2028C36.0095 20.2074 34.299 20.4362 32.6436 20.883L33.5649 23.0273C37.1432 22.1144 40.934 22.3633 44.3507 23.7355C47.7674 25.1078 50.6194 27.5268 52.4655 30.6182C54.3115 33.7097 55.0486 37.3012 54.5628 40.837C54.0769 44.3728 52.3951 47.6557 49.7777 50.1777C47.1602 52.6998 43.7531 54.3202 40.0835 54.7884C36.4139 55.2565 32.6865 54.5463 29.4781 52.7675C26.2697 50.9888 23.7591 48.2407 22.335 44.9486C20.9108 41.6565 20.6525 38.0039 21.5999 34.556L19.3745 33.6568C18.2884 37.3794 18.444 41.3367 19.8192 44.9695C21.1944 48.6023 23.7197 51.7267 27.0382 53.9013C30.3567 56.0759 34.3005 57.1907 38.3123 57.088C42.3241 56.9853 46.201 55.6704 49.3949 53.3292C52.5889 50.9879 54.9385 47.7387 56.1117 44.0407C57.2848 40.3427 57.2222 36.383 55.9326 32.7212C54.643 29.0594 52.1917 25.8807 48.9251 23.6343C45.6585 21.3879 41.7418 20.1876 37.7286 20.2028Z" fill="url(#paint0_linear_277_3165)"/>
<path d="M37.289 12.2976C34.8103 12.3041 32.3439 12.631 29.957 13.2693L31.2854 16.3326C36.4448 15.0285 41.9107 15.3841 46.8371 17.3444C51.7634 19.3047 55.8757 22.7604 58.5375 27.1768C61.1992 31.5931 62.262 36.7239 61.5615 41.775C60.8609 46.8262 58.436 51.5161 54.662 55.1189C50.8881 58.7218 45.9754 61.0368 40.6844 61.7056C35.3934 62.3744 30.019 61.3597 25.3929 58.8187C20.7668 56.2776 17.1469 52.3518 15.0935 47.6487C13.0401 42.9457 12.6676 37.7277 14.0337 32.8022L10.8249 31.5176C9.25895 36.8356 9.48327 42.4889 11.4661 47.6786C13.449 52.8682 17.0901 57.3318 21.8749 60.4383C26.6597 63.5449 32.3462 65.1374 38.1306 64.9907C43.915 64.844 49.5049 62.9656 54.1102 59.621C58.7155 56.2763 62.1033 51.6345 63.7948 46.3517C65.4863 41.0689 65.396 35.4121 63.5365 30.181C61.6771 24.9498 58.1427 20.4088 53.4327 17.1997C48.7227 13.9907 43.0755 12.2758 37.289 12.2976Z" fill="url(#paint1_linear_277_3165)"/>
<path d="M37.313 28.1085C36.2735 28.1112 35.2392 28.2474 34.2383 28.5134L34.7953 29.7898C36.959 29.2464 39.2511 29.3945 41.317 30.2113C43.3829 31.0281 45.1074 32.468 46.2236 34.3082C47.3398 36.1483 47.7855 38.2861 47.4918 40.3908C47.198 42.4954 46.1811 44.4495 44.5984 45.9507C43.0158 47.4519 40.9557 48.4165 38.7369 48.6952C36.518 48.9738 34.2643 48.5511 32.3243 47.4923C30.3843 46.4335 28.8663 44.7977 28.0052 42.8381C27.1441 40.8785 26.9879 38.7044 27.5608 36.6521L26.2151 36.1168C25.5584 38.3327 25.6525 40.6882 26.484 42.8506C27.3156 45.0129 28.8425 46.8727 30.849 48.1671C32.8555 49.4615 35.2402 50.1251 37.6659 50.064C40.0916 50.0028 42.4358 49.2202 44.367 47.8266C46.2983 46.433 47.719 44.4989 48.4283 42.2977C49.1377 40.0965 49.0998 37.7395 48.32 35.5599C47.5403 33.3803 46.0581 31.4882 44.0829 30.1511C42.1078 28.8139 39.7396 28.0994 37.313 28.1085Z" fill="url(#paint2_linear_277_3165)"/>
<path d="M13.8571 26.9731C14.0818 27.198 14.388 27.3266 14.709 27.3311H23.5933L36.6642 40.1469C37.1225 40.5995 37.7455 40.855 38.3959 40.8572C39.0464 40.8595 39.6712 40.6082 40.1327 40.1589C40.5943 39.7095 40.8549 39.0987 40.8572 38.4609C40.8595 37.8231 40.6033 37.2106 40.1449 36.758L26.8306 23.7752V15.4461C26.826 15.1313 26.6948 14.8311 26.4655 14.6108L12.8591 1.26993C12.689 1.10641 12.4737 0.995423 12.2398 0.950744C12.006 0.906066 11.7639 0.929656 11.5437 1.01859C11.3234 1.10753 11.1346 1.25789 11.0006 1.45106C10.8667 1.64422 10.7935 1.87167 10.7901 2.10523V11.6515H1.19994C0.961732 11.6547 0.729747 11.7265 0.532742 11.8578C0.335737 11.9891 0.182375 12.1743 0.0916694 12.3903C0.000964075 12.6063 -0.0230959 12.8436 0.022472 13.0729C0.0680399 13.3021 0.181232 13.5132 0.348015 13.68L13.8571 26.9731Z" fill="url(#paint3_linear_277_3165)"/>
<defs>
<linearGradient id="paint0_linear_277_3165" x1="37.804" y1="20.2026" x2="37.804" y2="57.0945" gradientUnits="userSpaceOnUse">
<stop stop-color="#0081BF"/>
<stop offset="1" stop-color="#00698A"/>
</linearGradient>
<linearGradient id="paint1_linear_277_3165" x1="37.3977" y1="12.2974" x2="37.3977" y2="65" gradientUnits="userSpaceOnUse">
<stop stop-color="#0081BF"/>
<stop offset="1" stop-color="#00698A"/>
</linearGradient>
<linearGradient id="paint2_linear_277_3165" x1="37.3586" y1="28.1084" x2="37.3586" y2="50.0678" gradientUnits="userSpaceOnUse">
<stop stop-color="#0081BF"/>
<stop offset="1" stop-color="#00698A"/>
</linearGradient>
<linearGradient id="paint3_linear_277_3165" x1="20.4286" y1="0.928711" x2="20.4286" y2="40.8572" gradientUnits="userSpaceOnUse">
<stop stop-color="#0081BF"/>
<stop offset="1" stop-color="#00698A"/>
</linearGradient>
</defs>
</svg>
