<svg width="65" height="39" viewBox="0 0 65 39" fill="none" xmlns="http://www.w3.org/2000/svg">
<path d="M35.2083 16.7915C36.8153 16.7915 38.3862 16.315 39.7223 15.4222C41.0585 14.5294 42.0999 13.2605 42.7149 11.7758C43.3298 10.2912 43.4907 8.65749 43.1772 7.0814C42.8637 5.5053 42.0899 4.05757 40.9536 2.92126C39.8173 1.78496 38.3695 1.01113 36.7934 0.697627C35.2173 0.384122 33.5837 0.545024 32.099 1.15999C30.6144 1.77495 29.3454 2.81635 28.4526 4.1525C27.5599 5.48865 27.0833 7.05953 27.0833 8.66651C27.0833 10.8214 27.9394 12.888 29.4631 14.4117C30.9868 15.9355 33.0534 16.7915 35.2083 16.7915ZM35.2083 5.95817C35.744 5.95817 36.2676 6.11701 36.713 6.41461C37.1584 6.71221 37.5055 7.13519 37.7105 7.63007C37.9155 8.12496 37.9691 8.66951 37.8646 9.19488C37.7601 9.72024 37.5022 10.2028 37.1234 10.5816C36.7446 10.9604 36.2621 11.2183 35.7367 11.3228C35.2113 11.4273 34.6668 11.3737 34.1719 11.1687C33.677 10.9637 33.254 10.6166 32.9564 10.1712C32.6588 9.72579 32.5 9.20216 32.5 8.66651C32.5 7.94821 32.7853 7.25934 33.2933 6.75143C33.8012 6.24352 34.49 5.95817 35.2083 5.95817ZM46.3396 16.4123C47.9241 14.1401 48.7736 11.4366 48.7736 8.66651C48.7736 5.89638 47.9241 3.19288 46.3396 0.920673C47.1185 0.669918 47.9317 0.541997 48.75 0.541507C50.9049 0.541507 52.9715 1.39753 54.4952 2.92126C56.019 4.445 56.875 6.51162 56.875 8.66651C56.875 10.8214 56.019 12.888 54.4952 14.4117C52.9715 15.9355 50.9049 16.7915 48.75 16.7915C47.9317 16.791 47.1185 16.6631 46.3396 16.4123ZM35.2083 22.2082C18.9583 22.2082 18.9583 33.0415 18.9583 33.0415V38.4582H51.4583V33.0415C51.4583 33.0415 51.4583 22.2082 35.2083 22.2082ZM24.375 33.0415C24.375 32.2561 25.2417 27.6248 35.2083 27.6248C44.6875 27.6248 45.8792 31.8498 46.0417 33.0415M65 33.0415V38.4582H56.875V33.0415C56.8117 31.0282 56.348 29.0478 55.511 27.2156C54.674 25.3835 53.4805 23.7365 52 22.3707C65 23.6978 65 33.0415 65 33.0415ZM21.6667 19.4998H13.5417V27.6248H8.125V19.4998H0V14.0832H8.125V5.95817H13.5417V14.0832H21.6667V19.4998Z" fill="url(#paint0_linear_277_3133)"/>
<defs>
<linearGradient id="paint0_linear_277_3133" x1="32.5" y1="0.541504" x2="32.5" y2="38.4582" gradientUnits="userSpaceOnUse">
<stop stop-color="#0081BF"/>
<stop offset="1" stop-color="#00698A"/>
</linearGradient>
</defs>
</svg>
