<svg width="45" height="35" viewBox="0 0 45 35" fill="none" xmlns="http://www.w3.org/2000/svg">
<path d="M42.1875 34.375C42.1875 34.375 45 34.375 45 31.5625C45 28.75 42.1875 20.3125 30.9375 20.3125C19.6875 20.3125 16.875 28.75 16.875 31.5625C16.875 34.375 19.6875 34.375 19.6875 34.375H42.1875ZM19.7494 31.5625C19.7286 31.5596 19.708 31.5559 19.6875 31.5513C19.6903 30.8088 20.1572 28.6544 21.825 26.7138C23.3775 24.8941 26.1056 23.125 30.9375 23.125C35.7666 23.125 38.4947 24.8969 40.05 26.7138C41.7178 28.6544 42.1819 30.8116 42.1875 31.5513L42.165 31.5569C42.1519 31.5591 42.1388 31.561 42.1256 31.5625H19.7494ZM30.9375 14.6875C32.4293 14.6875 33.8601 14.0949 34.915 13.04C35.9699 11.9851 36.5625 10.5543 36.5625 9.0625C36.5625 7.57066 35.9699 6.13992 34.915 5.08502C33.8601 4.03013 32.4293 3.4375 30.9375 3.4375C29.4457 3.4375 28.0149 4.03013 26.96 5.08502C25.9051 6.13992 25.3125 7.57066 25.3125 9.0625C25.3125 10.5543 25.9051 11.9851 26.96 13.04C28.0149 14.0949 29.4457 14.6875 30.9375 14.6875ZM39.375 9.0625C39.375 10.1705 39.1568 11.2677 38.7327 12.2914C38.3087 13.3151 37.6872 14.2452 36.9037 15.0287C36.1202 15.8122 35.1901 16.4337 34.1664 16.8577C33.1427 17.2818 32.0455 17.5 30.9375 17.5C29.8295 17.5 28.7323 17.2818 27.7086 16.8577C26.6849 16.4337 25.7548 15.8122 24.9713 15.0287C24.1878 14.2452 23.5663 13.3151 23.1423 12.2914C22.7182 11.2677 22.5 10.1705 22.5 9.0625C22.5 6.82474 23.3889 4.67863 24.9713 3.09629C26.5536 1.51395 28.6997 0.625 30.9375 0.625C33.1753 0.625 35.3214 1.51395 36.9037 3.09629C38.4861 4.67863 39.375 6.82474 39.375 9.0625ZM19.5075 21.1C18.3824 20.7457 17.2227 20.5128 16.0481 20.4053C15.3881 20.3426 14.7255 20.3116 14.0625 20.3125C2.8125 20.3125 0 28.75 0 31.5625C0 33.4384 0.936563 34.375 2.8125 34.375H14.67C14.2531 33.497 14.0451 32.5343 14.0625 31.5625C14.0625 28.7219 15.1228 25.8194 17.1281 23.395C17.8116 22.5681 18.6075 21.7947 19.5075 21.1ZM13.8375 23.125C12.1729 25.6261 11.2737 28.5582 11.25 31.5625H2.8125C2.8125 30.8312 3.27375 28.6656 4.95 26.7138C6.48281 24.925 9.14625 23.1813 13.8375 23.1278V23.125ZM4.21875 10.4688C4.21875 8.23099 5.1077 6.08488 6.69004 4.50254C8.27238 2.9202 10.4185 2.03125 12.6562 2.03125C14.894 2.03125 17.0401 2.9202 18.6225 4.50254C20.2048 6.08488 21.0938 8.23099 21.0938 10.4688C21.0938 12.7065 20.2048 14.8526 18.6225 16.435C17.0401 18.0173 14.894 18.9062 12.6562 18.9062C10.4185 18.9062 8.27238 18.0173 6.69004 16.435C5.1077 14.8526 4.21875 12.7065 4.21875 10.4688ZM12.6562 4.84375C11.1644 4.84375 9.73367 5.43638 8.67877 6.49127C7.62388 7.54617 7.03125 8.97691 7.03125 10.4688C7.03125 11.9606 7.62388 13.3913 8.67877 14.4462C9.73367 15.5011 11.1644 16.0938 12.6562 16.0938C14.1481 16.0938 15.5788 15.5011 16.6337 14.4462C17.6886 13.3913 18.2812 11.9606 18.2812 10.4688C18.2812 8.97691 17.6886 7.54617 16.6337 6.49127C15.5788 5.43638 14.1481 4.84375 12.6562 4.84375Z" fill="url(#paint0_linear_274_2475)"/>
<defs>
<linearGradient id="paint0_linear_274_2475" x1="22.5" y1="0.625" x2="22.5" y2="34.375" gradientUnits="userSpaceOnUse">
<stop stop-color="#0081BF"/>
<stop offset="1" stop-color="#00698A"/>
</linearGradient>
</defs>
</svg>
