<svg width="422" height="422" viewBox="0 0 422 422" fill="none" xmlns="http://www.w3.org/2000/svg">
<path d="M281.25 243.994C281.25 283.966 249.801 316.375 211 316.375C172.199 316.375 140.75 283.966 140.75 243.994C140.75 180.675 211 105.625 211 105.625C211 105.625 281.25 180.675 281.25 243.994Z" fill="#349ACD" fill-opacity="0.05"/>
<path fill-rule="evenodd" clip-rule="evenodd" d="M211 292.958C236.208 292.958 257.833 271.696 257.833 243.994C257.833 219.641 243.713 189.984 226.572 163.932C221.652 156.483 216.458 149.219 211 142.155C205.543 149.22 200.348 156.484 195.428 163.932C178.299 189.995 164.167 219.629 164.167 244.006C164.167 271.696 185.792 292.958 211 292.958ZM195.744 123.656C175.079 149.73 140.75 199.725 140.75 243.994C140.75 283.966 172.199 316.375 211 316.375C249.801 316.375 281.25 283.966 281.25 243.994C281.25 199.737 246.921 149.742 226.256 123.656C217.358 112.416 211 105.625 211 105.625C211 105.625 204.631 112.416 195.744 123.656Z" fill="#349ACD" fill-opacity="0.05"/>
<path fill-rule="evenodd" clip-rule="evenodd" d="M103.986 57.2346C67.2207 82.795 40.8272 120.679 29.5871 164.023C18.3471 207.366 23.004 253.302 42.7141 293.508C62.4242 333.714 95.8838 365.53 137.031 383.192C178.177 400.854 224.29 403.193 267.013 389.786L274.014 412.126C225.953 427.202 174.081 424.566 127.795 404.695C81.5096 384.824 43.8717 349.033 21.6998 303.804C-0.472114 258.576 -5.71162 206.902 6.93044 158.143C19.5725 109.385 49.26 66.7668 90.6149 38.0095L103.997 57.2346H103.986ZM318.014 364.766C354.759 339.197 381.134 301.316 392.361 257.982C403.589 214.647 398.928 168.725 379.222 128.53C359.516 88.3356 326.068 56.5263 284.935 38.8626C243.802 21.1989 197.704 18.8486 154.987 32.2373L147.986 9.88607C196.043 -5.17526 247.904 -2.5295 294.179 17.3442C340.454 37.218 378.082 73.0057 400.249 118.226C422.417 163.447 427.658 215.111 415.023 263.862C402.389 312.614 372.714 355.229 331.373 383.991L317.991 364.766H318.014Z" fill="#349ACD" fill-opacity="0.05"/>
<path fill-rule="evenodd" clip-rule="evenodd" d="M93.9163 47.0834H11.958V23.6667H117.333V129.042H93.9163V47.0834ZM328.083 374.917H410.041V398.333H304.666V292.958H328.083V374.917Z" fill="#349ACD" fill-opacity="0.05"/>
</svg>
