<svg width="39" height="33" viewBox="0 0 39 33" fill="none" xmlns="http://www.w3.org/2000/svg">
<path d="M28.875 25.8563C26.3438 25.8563 24.75 26.6438 23.3438 27.3563C22.125 27.975 21.1313 28.4813 19.5 28.4813C17.8125 28.4813 16.875 28.0126 15.6562 27.3563C14.25 26.6438 12.7125 25.8563 10.125 25.8563C7.5375 25.8563 6 26.6438 4.59375 27.3563C3.375 27.975 2.4 28.4813 0.75 28.4813V32.1376C3.28125 32.1376 4.875 31.35 6.28125 30.6376C7.5 30.0188 8.475 29.5126 10.125 29.5126C11.775 29.5126 12.75 29.9813 13.9688 30.6376C15.375 31.35 16.9125 32.1376 19.5 32.1376C22.0875 32.1376 23.625 31.35 25.0312 30.6376C26.25 30.0188 27.2437 29.5126 28.875 29.5126C30.5625 29.5126 31.5 29.9813 32.7187 30.6376C34.125 31.35 35.6813 32.1376 38.25 32.1376V28.4813C36.5625 28.4813 35.625 28.0126 34.4062 27.3563C33 26.6438 31.4062 25.8563 28.875 25.8563ZM28.875 17.5125C26.3438 17.5125 24.75 18.3188 23.3438 19.0126C22.125 19.6125 21.1313 20.1375 19.5 20.1375C17.8125 20.1375 16.875 19.6688 15.6562 19.0126C14.25 18.3 12.7125 17.5125 10.125 17.5125C7.5375 17.5125 6 18.3188 4.59375 19.0126C3.375 19.6125 2.4 20.1375 0.75 20.1375V23.7938C3.28125 23.7938 4.875 22.9875 6.28125 22.2938C7.5 21.6376 8.4375 21.1688 10.125 21.1688C11.8125 21.1688 12.75 21.6376 13.9688 22.2938C15.375 23.0063 16.9125 23.7938 19.5 23.7938C22.0875 23.7938 23.625 22.9875 25.0312 22.2938C26.25 21.6376 27.1875 21.1688 28.875 21.1688C30.5625 21.1688 31.5 21.6376 32.7187 22.2938C34.125 23.0063 35.6813 23.7938 38.25 23.7938V20.1375C36.5625 20.1375 35.625 19.6688 34.4062 19.0126C33 18.3 31.4062 17.5125 28.875 17.5125ZM34.4062 2.36255C33 1.65005 31.4438 0.862549 28.875 0.862549C26.3062 0.862549 24.75 1.65005 23.3438 2.36255C22.125 2.96255 21.1313 3.48755 19.5 3.48755C17.8125 3.48755 16.875 3.0188 15.6562 2.36255C14.25 1.6688 12.7125 0.862549 10.125 0.862549C7.5375 0.862549 6 1.65005 4.59375 2.36255C3.375 2.9813 2.4 3.48755 0.75 3.48755V7.1063C3.28125 7.1063 4.875 6.30005 6.28125 5.6063C7.5 4.98755 8.475 4.4813 10.125 4.4813C11.775 4.4813 12.75 4.95005 13.9688 5.6063C15.375 6.3188 16.9125 7.1063 19.5 7.1063C22.0875 7.1063 23.625 6.30005 25.0312 5.6063C26.25 5.0063 27.2437 4.4813 28.875 4.4813C30.5625 4.4813 31.5 4.95005 32.7187 5.6063C34.125 6.3188 35.6813 7.1063 38.25 7.1063V3.45005C36.5625 3.45005 35.625 2.9813 34.4062 2.36255ZM28.875 9.1688C26.3438 9.1688 24.75 9.97505 23.3438 10.6688C22.125 11.325 21.1875 11.7938 19.5 11.7938C17.8125 11.7938 16.875 11.325 15.6562 10.6688C14.25 9.9563 12.7125 9.1688 10.125 9.1688C7.5375 9.1688 6 9.97505 4.59375 10.6688C3.375 11.325 2.4375 11.7938 0.75 11.7938V15.45C3.28125 15.45 4.875 14.6438 6.28125 13.95C7.5 13.35 8.49375 12.825 10.125 12.825C11.7563 12.825 12.75 13.2938 13.9688 13.95C15.375 14.6625 16.9125 15.45 19.5 15.45C22.0875 15.45 23.625 14.6438 25.0312 13.95C26.25 13.35 27.2437 12.825 28.875 12.825C30.5625 12.825 31.5 13.2938 32.7187 13.95C34.125 14.6625 35.6813 15.45 38.25 15.45V11.7938C36.5625 11.7938 35.625 11.325 34.4062 10.6688C33 9.9563 31.4062 9.1688 28.875 9.1688Z" fill="url(#paint0_linear_274_2487)"/>
<defs>
<linearGradient id="paint0_linear_274_2487" x1="19.5" y1="0.862549" x2="19.5" y2="32.1375" gradientUnits="userSpaceOnUse">
<stop stop-color="#0081BF"/>
<stop offset="1" stop-color="#00698A"/>
</linearGradient>
</defs>
</svg>
