<svg width="25" height="25" viewBox="0 0 25 25" fill="none" xmlns="http://www.w3.org/2000/svg">
<path d="M24.2852 2.59783L24.2439 2.57202L19.0232 0L13.3884 7.51313L15.9808 10.97C15.9033 12.2736 15.3504 13.5036 14.4269 14.427C13.5035 15.3505 12.2735 15.9033 10.9698 15.9809L7.51307 13.3884L0 19.0232L2.55062 24.2002L2.57208 24.2439L2.59795 24.2851C2.73406 24.5045 2.92404 24.6853 3.14981 24.8104C3.37557 24.9355 3.6296 25.0008 3.88772 25H5.23484C7.83044 25 10.4006 24.4888 12.7986 23.4955C15.1967 22.5022 17.3756 21.0463 19.2109 19.2109C21.0463 17.3755 22.5022 15.1966 23.4955 12.7986C24.4888 10.4006 25 7.83038 25 5.23478V3.8876C25.0008 3.62949 24.9356 3.37546 24.8104 3.14969C24.6853 2.92393 24.5045 2.73394 24.2852 2.59783ZM23.0707 5.23478C23.0707 15.0695 15.0695 23.0707 5.23484 23.0707H4.1448L2.43824 19.6063L7.51343 15.7999L10.339 17.919H10.6606C12.5851 17.9169 14.4301 17.1514 15.791 15.7906C17.1518 14.4297 17.9173 12.5846 17.9194 10.6601V10.3386L15.8003 7.51307L19.6063 2.43818L23.0707 4.14504V5.23478Z" fill="url(#paint0_linear_145_19)"/>
<defs>
<linearGradient id="paint0_linear_145_19" x1="12.5" y1="0" x2="12.5" y2="25" gradientUnits="userSpaceOnUse">
<stop stop-color="#0081BF"/>
<stop offset="1" stop-color="#00698A"/>
</linearGradient>
</defs>
</svg>
