<svg width="39" height="38" viewBox="0 0 39 38" fill="none" xmlns="http://www.w3.org/2000/svg">
<path d="M37.6808 13.2067L26.0272 11.513L20.8178 0.951775C20.6755 0.662615 20.4414 0.428533 20.1522 0.286247C19.427 -0.0717604 18.5458 0.22658 18.1832 0.951775L12.9737 11.513L1.3201 13.2067C0.998815 13.2526 0.705065 13.404 0.480163 13.6335C0.208268 13.913 0.0584419 14.2889 0.0636057 14.6788C0.0687696 15.0687 0.228501 15.4406 0.507702 15.7127L8.93925 23.9331L6.94725 35.5408C6.90054 35.8109 6.93042 36.0886 7.03351 36.3425C7.13659 36.5964 7.30876 36.8163 7.53048 36.9773C7.7522 37.1384 8.01461 37.2341 8.28794 37.2536C8.56128 37.2731 8.83461 37.2156 9.07694 37.0876L19.5005 31.6073L29.924 37.0876C30.2086 37.2391 30.5391 37.2896 30.8558 37.2345C31.6544 37.0968 32.1914 36.3395 32.0537 35.5408L30.0617 23.9331L38.4933 15.7127C38.7227 15.4878 38.8742 15.1941 38.9201 14.8728C39.044 14.0695 38.4841 13.326 37.6808 13.2067ZM26.5138 22.7765L28.1707 32.4289L19.5005 27.8758L10.8303 32.4335L12.4872 22.7811L5.47391 15.9422L15.1677 14.5331L19.5005 5.75275L23.8333 14.5331L33.527 15.9422L26.5138 22.7765Z" fill="url(#paint0_linear_274_2481)"/>
<defs>
<linearGradient id="paint0_linear_274_2481" x1="19.5004" y1="0.134766" x2="19.5004" y2="37.2573" gradientUnits="userSpaceOnUse">
<stop stop-color="#0081BF"/>
<stop offset="1" stop-color="#00698A"/>
</linearGradient>
</defs>
</svg>
