<svg width="70" height="70" viewBox="0 0 70 70" fill="none" xmlns="http://www.w3.org/2000/svg">
<path d="M40.752 60H60.2505V65H40.752V60ZM40.752 50H69.9998V55H40.752V50ZM40.752 40H69.9998V45H40.752V40Z" fill="white"/>
<path d="M46.9647 23.0425L35.8773 0L24.79 23.0425L0 26.7375L17.9387 44.675L13.7026 70L31.0027 60.6725V55.0225L20.1786 60.86L22.7426 45.52L23.1765 42.9275L21.3412 41.095L10.4756 30.2275L25.4919 27.99L28.0267 27.6125L29.1625 25.255L35.8773 11.2975L42.5921 25.255L43.7279 27.6125L46.2627 27.99L64.4305 30.7025L65.1251 25.75L46.9647 23.0425Z" fill="white"/>
</svg>
