<svg width="60" height="56" viewBox="0 0 60 56" fill="none" xmlns="http://www.w3.org/2000/svg">
<path d="M32.5349 3.1919C32.2096 2.5332 31.7066 1.97862 31.0827 1.59084C30.4588 1.20306 29.7388 0.997559 29.0042 0.997559C28.2696 0.997559 27.5497 1.20306 26.9258 1.59084C26.3018 1.97862 25.7988 2.5332 25.4736 3.1919L18.8192 16.6757L3.93987 18.8413C3.21246 18.9462 2.52894 19.2526 1.96664 19.7258C1.40433 20.199 0.985683 20.8202 0.758064 21.5189C0.530445 22.2177 0.502939 22.9663 0.678657 23.6799C0.854376 24.3935 1.22631 25.0437 1.75236 25.5569L12.5236 36.0525L9.98174 50.8707C9.85722 51.595 9.93789 52.3397 10.2146 53.0205C10.4914 53.7013 10.9531 54.2911 11.5477 54.7231C12.1422 55.1552 12.8458 55.4122 13.5788 55.4651C14.3119 55.518 15.0451 55.3647 15.6955 55.0225L28.9999 48.0225L31.1086 49.1338C30.3525 48.4381 29.7707 47.5742 29.4104 46.612C29.0502 45.6498 28.9215 44.6162 29.0349 43.595C28.3845 43.5886 27.7427 43.7435 27.1667 44.0457L14.4355 50.7394L16.868 36.5644C16.9767 35.9352 16.9307 35.2891 16.734 34.6816C16.5374 34.0742 16.196 33.5237 15.7392 33.0775L5.44486 23.0413L19.6767 20.9719C20.3079 20.8798 20.9072 20.6358 21.4231 20.2609C21.939 19.8859 22.3562 19.3912 22.6386 18.8194L29.0042 5.92628L32.2111 12.4188C33.1911 11.8325 34.3374 11.5 35.5624 11.5H36.6342L32.5349 3.18753V3.1919ZM35.5624 15.875C34.9822 15.875 34.4258 16.1055 34.0156 16.5157C33.6053 16.926 33.3749 17.4824 33.3749 18.0625C33.3749 18.6427 33.6053 19.1991 34.0156 19.6093C34.4258 20.0196 34.9822 20.25 35.5624 20.25H57.4374C58.0175 20.25 58.5739 20.0196 58.9842 19.6093C59.3944 19.1991 59.6249 18.6427 59.6249 18.0625C59.6249 17.4824 59.3944 16.926 58.9842 16.5157C58.5739 16.1055 58.0175 15.875 57.4374 15.875H35.5624ZM35.5624 29C34.9822 29 34.4258 29.2305 34.0156 29.6407C33.6053 30.051 33.3749 30.6074 33.3749 31.1875C33.3749 31.7677 33.6053 32.3241 34.0156 32.7343C34.4258 33.1446 34.9822 33.375 35.5624 33.375H57.4374C58.0175 33.375 58.5739 33.1446 58.9842 32.7343C59.3944 32.3241 59.6249 31.7677 59.6249 31.1875C59.6249 30.6074 59.3944 30.051 58.9842 29.6407C58.5739 29.2305 58.0175 29 57.4374 29H35.5624ZM35.5624 42.125C34.9822 42.125 34.4258 42.3555 34.0156 42.7657C33.6053 43.176 33.3749 43.7324 33.3749 44.3125C33.3749 44.8927 33.6053 45.4491 34.0156 45.8593C34.4258 46.2696 34.9822 46.5 35.5624 46.5H57.4374C58.0175 46.5 58.5739 46.2696 58.9842 45.8593C59.3944 45.4491 59.6249 44.8927 59.6249 44.3125C59.6249 43.7324 59.3944 43.176 58.9842 42.7657C58.5739 42.3555 58.0175 42.125 57.4374 42.125H35.5624Z" fill="url(#paint0_linear_277_3141)"/>
<defs>
<linearGradient id="paint0_linear_277_3141" x1="27.0714" y1="0.410645" x2="27.0714" y2="54.5172" gradientUnits="userSpaceOnUse">
<stop stop-color="#0081BF"/>
<stop offset="1" stop-color="#00698A"/>
</linearGradient>
</defs>
</svg>
