<svg width="62" height="65" viewBox="0 0 62 65" fill="none" xmlns="http://www.w3.org/2000/svg">
<path d="M30.7799 1.46247e-05C31.8443 1.46247e-05 32.8924 0.0690771 33.8674 0.231577C34.8276 0.357403 35.7751 0.566738 36.6989 0.857202C37.6252 1.13751 38.5311 1.48689 39.4371 1.92564C40.3186 2.34408 41.2246 2.85595 42.1305 3.41251C43.6621 4.38751 45.1693 5.17564 46.7049 5.80533C49.728 7.01527 52.9247 7.73526 56.1746 7.93814C57.8239 8.05595 59.518 8.12501 61.2811 8.12501V24.375C61.2811 27.4625 60.8871 30.3875 60.0989 33.1744C59.3419 35.9215 58.2661 38.5706 56.8936 41.0678C55.5269 43.5615 53.9098 45.9096 52.0674 48.0756C50.1967 50.2909 48.1712 52.3708 46.0061 54.2994C43.8125 56.2337 41.5019 58.0314 39.0877 59.6822C36.6746 61.356 34.2371 62.9119 31.7996 64.3256L30.8246 64.9066L29.8496 64.3256C27.3438 62.8749 24.8963 61.3259 22.5127 59.6822C20.0849 58.05 17.7732 56.2514 15.5943 54.2994C13.4305 52.3707 11.4064 50.2909 9.53707 48.0756C7.69958 45.9004 6.07525 43.5537 4.68645 41.0678C3.33742 38.5595 2.26277 35.9131 1.48114 33.1744C0.688012 30.3093 0.296979 27.3478 0.31926 24.375V8.12501C2.08645 8.12501 3.78051 8.05595 5.42989 7.93814C7.05351 7.82537 8.66662 7.59318 10.2561 7.24345C11.8121 6.89408 13.368 6.43095 14.8996 5.80533C16.4888 5.16392 18.0126 4.37077 19.4496 3.43689C21.2371 2.27501 23.0489 1.41783 24.8364 0.85314C26.7615 0.262987 28.7665 -0.0248134 30.7799 1.46247e-05ZM57.1943 12.1185C54.1191 11.9692 51.0725 11.4551 48.1186 10.5869C45.1804 9.71042 42.3818 8.42053 39.8068 6.75595C38.4711 5.87925 37.0206 5.19158 35.4964 4.71251C33.974 4.25238 32.3907 4.02502 30.8002 4.03814C29.1979 4.02778 27.603 4.25504 26.0674 4.71251C24.541 5.17601 23.0923 5.86475 21.7693 6.75595C19.1898 8.42961 16.3839 9.72516 13.4371 10.6031C10.5568 11.44 7.54239 11.9519 4.38176 12.1388V24.3953C4.38176 27.0888 4.73114 29.6644 5.42989 32.1466C6.14174 34.6072 7.12267 36.9818 8.35489 39.2275C9.60187 41.4966 11.0716 43.6359 12.7424 45.6138C14.4364 47.6085 16.2443 49.465 18.1943 51.2281C20.1443 52.9953 22.1877 54.6203 24.3246 56.1275C26.4818 57.6388 28.643 59.0078 30.8002 60.2591C33.009 58.9732 35.1627 57.5948 37.2555 56.1275C39.4065 54.6251 41.4608 52.9887 43.4061 51.2281C45.3561 49.465 47.168 47.6085 48.8621 45.6138C50.533 43.636 52.0028 41.4967 53.2496 39.2275C54.4763 36.9847 55.4427 34.6089 56.1299 32.1466C56.8499 29.6263 57.2082 27.0164 57.1943 24.3953V12.1185Z" fill="url(#paint0_linear_277_3150)"/>
<path fill-rule="evenodd" clip-rule="evenodd" d="M45.9245 19.1304L44.137 17.5947L42.4876 17.7369L24.7751 38.6507L18.7423 30.0382L17.1173 29.7619L15.2364 31.1066L14.9561 32.7316L22.7114 43.806L23.5929 44.2935L25.4495 44.4072L26.4001 43.9929L46.0423 20.7757L45.9245 19.1304Z" fill="url(#paint1_linear_277_3150)"/>
<defs>
<linearGradient id="paint0_linear_277_3150" x1="30.7997" y1="-0.00146484" x2="30.7997" y2="64.9066" gradientUnits="userSpaceOnUse">
<stop stop-color="#0081BF"/>
<stop offset="1" stop-color="#00698A"/>
</linearGradient>
<linearGradient id="paint1_linear_277_3150" x1="30.4992" y1="17.5947" x2="30.4992" y2="44.4072" gradientUnits="userSpaceOnUse">
<stop stop-color="#0081BF"/>
<stop offset="1" stop-color="#00698A"/>
</linearGradient>
</defs>
</svg>
