<svg width="54" height="55" viewBox="0 0 54 55" fill="none" xmlns="http://www.w3.org/2000/svg">
<path d="M48.6099 27.464C48.6099 33.204 46.3406 38.7089 42.3014 42.7676C38.2622 46.8264 32.7838 49.1066 27.0714 49.1066C21.3591 49.1066 15.8807 46.8264 11.8415 42.7676C7.80226 38.7089 5.53304 33.204 5.53304 27.464C5.53304 21.724 7.80226 16.2192 11.8415 12.1604C15.8807 8.10161 21.3591 5.82141 27.0714 5.82141C29.1176 5.82141 31.1099 6.119 32.9945 6.66006L37.2214 2.41271C34.0022 1.08051 30.5529 0.400184 27.0714 0.410766C23.5359 0.410766 20.0349 1.11052 16.7685 2.47007C13.502 3.82962 10.534 5.82235 8.03401 8.33447C2.98496 13.4079 0.148438 20.289 0.148438 27.464C0.148438 34.639 2.98496 41.5201 8.03401 46.5935C10.534 49.1057 13.502 51.0984 16.7685 52.4579C20.0349 53.8175 23.5359 54.5172 27.0714 54.5172C34.2119 54.5172 41.0598 51.667 46.1089 46.5935C51.1579 41.5201 53.9945 34.639 53.9945 27.464M16.0599 22.2698L12.2638 26.1113L24.3791 38.2853L51.3022 11.2321L47.506 7.3905L24.3791 30.6292L16.0599 22.2698Z" fill="url(#paint0_linear_277_3141)"/>
<defs>
<linearGradient id="paint0_linear_277_3141" x1="27.0714" y1="0.410645" x2="27.0714" y2="54.5172" gradientUnits="userSpaceOnUse">
<stop stop-color="#0081BF"/>
<stop offset="1" stop-color="#00698A"/>
</linearGradient>
</defs>
</svg>
